<svg xmlns="http://www.w3.org/2000/svg" version="1.1" xmlns:xlink="http://www.w3.org/1999/xlink" xmlns:svgjs="http://svgjs.dev/svgjs" width="2000" height="2166" viewBox="0 0 2000 2166"><g transform="matrix(1,0,0,1,-1.6358790593504864,0.8769230769230489)"><svg viewBox="0 0 228 247" data-background-color="#ffffff" preserveAspectRatio="xMidYMid meet" height="2166" width="2000" xmlns="http://www.w3.org/2000/svg" xmlns:xlink="http://www.w3.org/1999/xlink"><g id="tight-bounds" transform="matrix(1,0,0,1,0.18649021276596045,-0.09999999999999432)"><svg viewBox="0 0 227.62701957446808 247.2" height="247.2" width="227.62701957446808"><g><svg viewBox="0 0 227.62701957446808 247.2" height="247.2" width="227.62701957446808"><g><svg viewBox="0 0 227.62701957446808 247.2" height="247.2" width="227.62701957446808"><g id="textblocktransform"><svg viewBox="0 0 227.62701957446808 247.2" height="247.2" width="227.62701957446808" id="textblock"><g><svg viewBox="0 0 227.62701957446808 247.2" height="247.2" width="227.62701957446808"><rect width="227.62701957446808" height="247.2" x="0" y="0" opacity="1" fill="#bf1818" data-fill-palette-color="tertiary"></rect><g transform="matrix(1,0,0,1,23.607599999999998,23.607599999999998)"><svg width="180.4118195744681" viewBox="-0.9 -35.25 31.799999999999997 35.25" height="199.9848" data-palette-color="#ffffff"><path d="M26.25-35.25L30.9-35.25 17.05-16.65 17.05 0 12.95 0 12.95-16.7-0.9-35.25 3.85-35.25 15.05-20.05 26.25-35.25Z" opacity="1" transform="matrix(1,0,0,1,0,0)" fill="#ffffff" class="wordmark-text-0" data-fill-palette-color="quaternary" id="text-0"></path></svg></g></svg></g></svg></g></svg></g></svg></g><defs></defs></svg><rect width="227.62701957446808" height="247.2" fill="none" stroke="none" visibility="hidden"></rect></g></svg></g></svg>