<svg xmlns="http://www.w3.org/2000/svg" version="1.1" xmlns:xlink="http://www.w3.org/1999/xlink" xmlns:svgjs="http://svgjs.dev/svgjs" width="2000" height="1247" viewBox="0 0 2000 1247"><g transform="matrix(1,0,0,1,-1.2121212121212466,0.504858299595071)"><svg viewBox="0 0 396 247" data-background-color="#ffffff" preserveAspectRatio="xMidYMid meet" height="1247" width="2000" xmlns="http://www.w3.org/2000/svg" xmlns:xlink="http://www.w3.org/1999/xlink"><g id="tight-bounds" transform="matrix(1,0,0,1,0.2400000000000091,-0.09999999999999432)"><svg viewBox="0 0 395.52 247.2" height="247.2" width="395.52"><g><svg></svg></g><g><svg viewBox="0 0 395.52 247.2" height="247.2" width="395.52"><g transform="matrix(1,0,0,1,75.54432000000001,53.73068089212563)"><svg viewBox="0 0 244.43135999999996 139.73863821574872" height="139.73863821574872" width="244.43135999999996"><g><svg viewBox="0 0 244.43135999999996 139.73863821574872" height="139.73863821574872" width="244.43135999999996"><g><svg viewBox="0 0 244.43135999999996 139.73863821574872" height="139.73863821574872" width="244.43135999999996"><g><svg viewBox="0 0 244.43135999999996 139.73863821574872" height="139.73863821574872" width="244.43135999999996"><g id="textblocktransform"><svg viewBox="0 0 244.43135999999996 139.73863821574872" height="139.73863821574872" width="244.43135999999996" id="textblock"><g><svg viewBox="0 0 244.43135999999996 139.73863821574872" height="139.73863821574872" width="244.43135999999996"><g transform="matrix(1,0,0,1,0,0)"><svg width="244.43135999999996" viewBox="0.45 -31.4 54.919999999999995 31.4" height="139.73863821574872" data-palette-color="#ee3e38"><path d="M11.65-12.9L0.45-31.4 5.15-31.4 14.15-16.15 13.15-16.15 22.3-31.4 26.95-31.4 15.6-12.9 15.6 0 11.65 0 11.65-12.9ZM32.07 0L32.07-31.4 35.97-31.4 35.97-17.55 51.52-17.55 51.52-31.4 55.37-31.4 55.37 0 51.52 0 51.52-14.2 35.97-14.2 35.97 0 32.07 0Z" opacity="1" transform="matrix(1,0,0,1,0,0)" fill="#ee3e38" class="wordmark-text-0" data-fill-palette-color="primary" id="text-0"></path></svg></g></svg></g></svg></g></svg></g></svg></g></svg></g></svg></g><g><path d="M0 123.6c0-68.262 55.338-123.6 123.6-123.6 34.654 0 65.978 14.262 88.421 37.236l-9.045 0c-20.888-19.208-48.762-30.935-79.376-30.935-64.783 0-117.299 52.517-117.299 117.299 0 64.783 52.517 117.299 117.299 117.299 30.614 0 58.488-11.728 79.376-30.935l9.045 0c-22.443 22.974-53.767 37.236-88.421 37.236-68.262 0-123.6-55.338-123.6-123.6z" fill="#ee3e38" stroke="transparent" data-fill-palette-color="tertiary"></path></g></svg></g><defs></defs></svg><rect width="395.52" height="247.2" fill="none" stroke="none" visibility="hidden"></rect></g></svg></g></svg>